<?xml version="1.0" encoding="UTF-8"?>
<svg version="1.1" xmlns="http://www.w3.org/2000/svg" width="2700" height="2700">
<path d="M0 0 C891 0 1782 0 2700 0 C2700 891 2700 1782 2700 2700 C1809 2700 918 2700 0 2700 C0 1809 0 918 0 0 Z " fill="#4E2B8B" transform="translate(0,0)"/>
<path d="M0 0 C4.70805412 0.76719757 7.13032637 3.13634066 10.64453125 6.23046875 C12.06443245 7.43332342 13.48637385 8.63377316 14.91015625 9.83203125 C15.63912109 10.44981445 16.36808594 11.06759766 17.11914062 11.70410156 C20.62547987 14.61779829 24.25548396 17.36065407 27.89453125 20.10546875 C33.98748236 24.72468861 39.99215587 29.43715549 45.94726562 34.23242188 C50.41541322 37.82502191 54.93504989 41.3423626 59.48925781 44.82495117 C64.05979686 48.32274138 68.58434306 51.87676982 73.10400391 55.43994141 C76.96991142 58.48363431 80.86109293 61.49166297 84.76953125 64.48046875 C89.50756624 68.10639773 94.18184857 71.80513363 98.83203125 75.54296875 C104.4293166 80.04086358 110.08035903 84.45412577 115.78125 88.8203125 C120.18424855 92.19274021 124.57267759 95.58384952 128.95703125 98.98046875 C129.73989502 99.5842334 130.52275879 100.18799805 131.3293457 100.81005859 C132.43282349 101.66591553 132.43282349 101.66591553 133.55859375 102.5390625 C134.21424316 103.04622803 134.86989258 103.55339355 135.54541016 104.07592773 C137.26984299 105.49190436 138.86533581 106.85986177 140.33203125 108.54296875 C140.4375 110.87890625 140.4375 110.87890625 139.33203125 113.54296875 C137.14158141 115.6118916 135.04278656 117.37593744 132.64453125 119.16796875 C131.97115723 119.68794434 131.2977832 120.20791992 130.60400391 120.74365234 C129.20456998 121.82373918 127.80119196 122.89873383 126.39404297 123.96875 C123.88409401 125.8849412 121.40775075 127.84119533 118.93261719 129.80200195 C113.42963507 134.15814018 107.86966336 138.43808991 102.29638672 142.70361328 C98.09716394 145.92880915 93.95884938 149.22581611 89.83203125 152.54296875 C84.7498856 156.62690502 79.63240666 160.65292679 74.45483398 164.61547852 C63.78981485 172.77828908 53.20881652 181.05133507 42.65820312 189.36132812 C39.44479314 191.89009406 36.22289299 194.40741969 32.9921875 196.9140625 C32.2384082 197.49905518 31.48462891 198.08404785 30.70800781 198.68676758 C29.17322351 199.8767275 27.63742516 201.06538075 26.10058594 202.25268555 C22.37574851 205.13883635 18.68724174 208.05518592 15.0625 211.06640625 C14.39017334 211.62078369 13.71784668 212.17516113 13.02514648 212.74633789 C11.7676707 213.78767762 10.51788353 214.8384024 9.27758789 215.90014648 C5.71672985 218.83916257 3.00807995 220.4551239 -1.66796875 220.54296875 C-3.66796875 218.54296875 -3.66796875 218.54296875 -3.90847778 216.48019409 C-3.90403656 215.63192047 -3.89959534 214.78364685 -3.89501953 213.90966797 C-3.89486847 212.94882294 -3.89471741 211.98797791 -3.89456177 210.99801636 C-3.8842392 209.95839752 -3.87391663 208.91877869 -3.86328125 207.84765625 C-3.85903641 206.25378586 -3.85903641 206.25378586 -3.85470581 204.62771606 C-3.84348514 201.22435376 -3.81837712 197.82125189 -3.79296875 194.41796875 C-3.78294139 192.11458713 -3.77381512 189.81120139 -3.765625 187.5078125 C-3.74353968 181.8527753 -3.71004364 176.19789062 -3.66796875 170.54296875 C-36.56921735 170.57900027 -69.4703529 170.63599059 -102.37150974 170.7208897 C-106.26028672 170.73090655 -110.14906411 170.74075078 -114.0378418 170.75048828 C-114.8119916 170.75242965 -115.58614141 170.75437103 -116.3837503 170.75637123 C-128.90062543 170.78734926 -141.41748225 170.80436014 -153.93438848 170.81616297 C-166.78839438 170.82859632 -179.64230454 170.85614686 -192.49624997 170.89758182 C-200.4208293 170.92265489 -208.34524975 170.93609057 -216.26986931 170.93439832 C-222.35774896 170.93436491 -228.44537423 170.95541606 -234.53319359 170.98413658 C-237.02234521 170.99262711 -239.5115307 170.99439132 -242.00069046 170.98877144 C-261.43664559 170.95074871 -276.91165087 172.31446136 -291.85546875 186.04296875 C-301.67286156 196.27779401 -306.1900996 209.11412644 -305.9140625 223.17578125 C-304.94777922 236.39699051 -299.3645532 248.44517736 -289.66796875 257.54296875 C-278.66838396 266.85180464 -266.22432131 270.69374874 -252.06303406 270.68772888 C-251.08999842 270.69125573 -250.11696278 270.69478257 -249.11444122 270.69841629 C-245.85062201 270.70909908 -242.58683201 270.71278365 -239.32299805 270.71655273 C-236.98371762 270.72285865 -234.64443839 270.7296245 -232.30516052 270.73681641 C-227.26388995 270.75148831 -222.22262401 270.76321262 -217.18134117 270.77276421 C-209.87509644 270.78691799 -202.56888246 270.80786124 -195.26266239 270.83119274 C-183.38532146 270.86910533 -171.50797429 270.90406424 -159.63061523 270.93579102 C-158.91989216 270.93769151 -158.20916909 270.939592 -157.47690896 270.94155008 C-147.41227893 270.96832723 -137.3476441 270.99221561 -127.2830042 271.01493508 C-126.57561623 271.01653238 -125.86822826 271.01812969 -125.1394043 271.01977539 C-124.43288543 271.02136886 -123.72636656 271.02296232 -122.99843802 271.02460407 C-111.17824768 271.0514599 -99.35809353 271.08589886 -87.53794223 271.12642914 C-79.615207 271.15326816 -71.69250533 271.1710672 -63.76973283 271.18246639 C-58.82065076 271.19164344 -53.87162185 271.20902972 -48.92257118 271.22864532 C-46.64107735 271.23606964 -44.35956983 271.24019877 -42.07806396 271.24064064 C-26.18905871 271.24619886 -10.86194332 271.91992883 4.64453125 275.73046875 C5.52496094 275.94622559 6.40539063 276.16198242 7.3125 276.38427734 C46.22517472 286.28666108 79.53028252 309.36573932 103.33203125 341.54296875 C103.75629395 342.11225098 104.18055664 342.6815332 104.61767578 343.26806641 C117.11233126 360.27427392 126.24980587 380.43281059 130.95703125 400.98046875 C131.16070313 401.83189453 131.364375 402.68332031 131.57421875 403.56054688 C132.19552479 406.21503709 132.77445849 408.87437953 133.33203125 411.54296875 C133.52474609 412.45997559 133.71746094 413.37698242 133.91601562 414.32177734 C135.49161777 422.63854562 135.64884436 430.85982088 135.58203125 439.29296875 C135.57859711 440.00184235 135.57516296 440.71071594 135.57162476 441.44107056 C135.51390111 451.59627793 135.3214173 461.54396033 133.33203125 471.54296875 C133.10604248 472.70119141 133.10604248 472.70119141 132.87548828 473.8828125 C126.79642923 504.20219251 113.69193004 532.80728853 92.32421875 555.4296875 C90.50045727 557.36430507 88.8278543 559.3619697 87.14453125 561.41796875 C77.85827942 572.0064306 66.20348694 580.13538652 54.33203125 587.54296875 C53.28273438 588.2184375 52.2334375 588.89390625 51.15234375 589.58984375 C19.55598178 608.90302344 -15.43751811 614.0058287 -51.7175293 613.95947266 C-54.48730565 613.9652143 -57.25706132 613.97543994 -60.02682495 613.98548889 C-65.94858067 614.00471555 -71.87027322 614.01344097 -77.79205894 614.01478958 C-86.3546522 614.01684311 -94.91713922 614.03639996 -103.47969649 614.0601875 C-117.37911262 614.09842878 -131.27852148 614.12433901 -145.17797852 614.14160156 C-158.66366591 614.15839052 -172.1493376 614.17860643 -185.63500977 614.20507812 C-186.46853565 614.20671155 -187.30206153 614.20834497 -188.16084578 614.21002789 C-197.25435061 614.22798247 -206.3478517 614.2473189 -215.44134998 614.26833153 C-216.23935548 614.27017295 -217.03736097 614.27201437 -217.85954845 614.27391159 C-221.0483799 614.28128929 -224.2372113 614.28868299 -227.4260423 614.29625539 C-236.76300662 614.31839443 -246.0999554 614.33619756 -255.43694101 614.3462082 C-261.27744835 614.3525719 -267.11794431 614.36210708 -272.95844265 614.37417676 C-276.33078285 614.38098035 -279.70308809 614.38549018 -283.07543755 614.38676262 C-286.72179948 614.38832211 -290.36810029 614.39586776 -294.01445007 614.40493774 C-295.09125131 614.40386949 -296.16805254 614.40280124 -297.27748412 614.40170062 C-298.24597535 614.40532496 -299.21446658 614.40894931 -300.21230602 614.41268349 C-301.47589122 614.41423122 -301.47589122 614.41423122 -302.76500338 614.41581023 C-304.67837981 614.33391688 -304.67837981 614.33391688 -305.66796875 615.54296875 C-305.77247424 617.48271568 -305.80596683 619.42630242 -305.81272888 621.36885071 C-305.81962738 622.63498199 -305.82652588 623.90111328 -305.83363342 625.20561218 C-305.8363484 626.62185655 -305.83898553 628.03810106 -305.84155273 629.4543457 C-305.84785436 630.93567094 -305.85461972 632.41699427 -305.86181641 633.89831543 C-305.87651442 637.09588031 -305.88822778 640.29343773 -305.89776421 643.49102211 C-305.91318075 648.54557887 -305.93713006 653.60007232 -305.96266174 658.65458679 C-306.03395873 673.0303447 -306.09364786 687.40613915 -306.14477539 701.78198242 C-306.17306759 709.7158007 -306.20844442 717.6495563 -306.25142914 725.58330888 C-306.27822775 730.60913441 -306.29611704 735.63488899 -306.30746639 740.66077197 C-306.31658644 743.78796466 -306.33394574 746.91507118 -306.35364532 750.04221344 C-306.36112489 751.49343449 -306.36520213 752.94467763 -306.36564064 754.39591789 C-306.36672214 756.3760165 -306.38112783 758.35609452 -306.39622498 760.33613586 C-306.40045691 761.4446758 -306.40468885 762.55321573 -306.40904903 763.69534779 C-306.66956887 766.56056698 -307.070599 768.17243495 -308.66796875 770.54296875 C-311.82031688 772.64453417 -312.57233422 772.79625328 -316.17111206 772.81712341 C-317.0935672 772.82709854 -318.01602234 772.83707367 -318.96643066 772.84735107 C-319.97637085 772.84801575 -320.98631104 772.84868042 -322.02685547 772.84936523 C-323.09215485 772.85768875 -324.15745422 772.86601227 -325.2550354 772.87458801 C-328.7859459 772.89873582 -332.31667186 772.90746588 -335.84765625 772.9140625 C-338.29761817 772.9230249 -340.74757952 772.93214667 -343.19754028 772.94142151 C-348.33727348 772.95792688 -353.47694141 772.9656145 -358.61669922 772.96850586 C-365.20675828 772.97389239 -371.79620516 773.01157793 -378.38609123 773.05725002 C-383.4475428 773.08697296 -388.50884608 773.09422838 -393.57037735 773.09523201 C-396.00010101 773.09944345 -398.42982476 773.11191445 -400.85946274 773.13274956 C-404.25686585 773.15956481 -407.65283855 773.15486688 -411.05029297 773.14233398 C-412.55913055 773.16458542 -412.55913055 773.16458542 -414.09844971 773.18728638 C-418.81595905 773.13765775 -420.9474104 773.10351687 -424.76907349 770.13050842 C-427.65831452 766.19346884 -427.79719745 764.19283874 -427.81513977 759.32485962 C-427.81881646 758.67981016 -427.82249315 758.03476069 -427.82628125 757.37016428 C-427.83733617 755.19810286 -427.84116525 753.02608927 -427.8449707 750.85400391 C-427.85123489 749.29997098 -427.85788165 747.74593956 -427.86488342 746.19190979 C-427.88596321 741.07196095 -427.89630177 735.95201173 -427.90625 730.83203125 C-427.91029862 729.06491455 -427.91441557 727.297798 -427.91860008 725.53068161 C-427.93767448 717.21299547 -427.95189065 708.89531824 -427.96021205 700.57761443 C-427.96993915 691.01426343 -427.99612954 681.4511467 -428.03671294 671.88787806 C-428.06706373 664.47781815 -428.08169944 657.06782453 -428.08499306 649.65770376 C-428.08732562 645.24269118 -428.09604573 640.82792812 -428.12145424 636.41298294 C-428.23678914 615.28754771 -428.342858 594.72269533 -420.41796875 574.73046875 C-420.12132324 573.95823975 -419.82467773 573.18601074 -419.51904297 572.39038086 C-412.85489676 555.52859768 -403.08789154 541.74925537 -390.66796875 528.54296875 C-390.13042969 527.94097656 -389.59289063 527.33898438 -389.0390625 526.71875 C-369.72158047 505.94882571 -338.25393537 493.38176227 -310.27249908 492.17203903 C-303.55382381 491.9964613 -296.83607139 491.99718638 -290.11554766 492.02348137 C-286.61193294 492.03268192 -283.10839541 492.01844565 -279.60479736 492.00721741 C-273.55698067 491.99084648 -267.5092963 491.98852773 -261.46146393 491.99598312 C-252.70901336 492.00657505 -243.95672244 491.99301641 -235.2042931 491.97351857 C-220.98678076 491.94230363 -206.7693025 491.92718482 -192.55175781 491.92382812 C-191.279925 491.92352214 -191.279925 491.92352214 -189.9823986 491.92320998 C-189.13341976 491.92300661 -188.28444091 491.92280324 -187.40973544 491.92259371 C-175.346394 491.9196674 -163.28306304 491.91284747 -151.21972656 491.90136719 C-150.36924953 491.90056189 -149.5187725 491.8997566 -148.64252344 491.8989269 C-134.45792397 491.88516856 -120.27334329 491.86338395 -106.08876109 491.83749735 C-97.35673925 491.82207875 -88.62477888 491.81483645 -79.89274368 491.81829228 C-73.91808824 491.82033364 -67.94346344 491.81566641 -61.96881595 491.80574892 C-58.52470607 491.80032337 -55.08067557 491.79823034 -51.63656616 491.8049221 C-47.90064214 491.81056114 -44.16492784 491.8040189 -40.42901611 491.79452515 C-39.34536813 491.79918836 -38.26172015 491.80385157 -37.14523435 491.8086561 C-22.17710602 491.73434122 -10.4106293 486.74021561 0.4609375 476.546875 C11.61631305 465.01048093 13.91001213 452.16222809 13.67578125 436.83984375 C13.39914362 430.29736373 11.66568207 425.16631131 8.33203125 419.54296875 C7.8628125 418.72699219 7.39359375 417.91101562 6.91015625 417.0703125 C-0.33663349 405.40142257 -10.40821343 398.25488812 -23.54743195 394.36876297 C-32.36309034 392.33562178 -41.73662344 392.99327267 -50.72167969 393.02880859 C-53.0408169 393.02334068 -55.35995049 393.01609513 -57.67907715 393.00721741 C-62.6526073 392.99193479 -67.62593132 392.98905592 -72.59947968 392.99598312 C-79.80862763 393.0058972 -87.01757234 392.99302534 -94.22669461 392.97351857 C-105.95093511 392.94225608 -117.67513425 392.92718121 -129.39941406 392.92382812 C-130.44934734 392.92352214 -130.44934734 392.92352214 -131.52049139 392.92320998 C-132.22126978 392.92300661 -132.92204818 392.92280324 -133.64406228 392.92259371 C-143.56772751 392.91967672 -153.4913799 392.9128762 -163.41503906 392.90136719 C-164.11291675 392.90056189 -164.81079444 392.8997566 -165.52981994 392.8989269 C-177.20900617 392.88512243 -188.88816987 392.86329759 -200.56733537 392.83749735 C-208.38445178 392.82108233 -216.20147566 392.81556655 -224.01860762 392.81908774 C-228.89888947 392.81952756 -233.77913696 392.81191921 -238.65940857 392.80241203 C-240.90663259 392.79974971 -243.15386376 392.80044572 -245.4010849 392.8049221 C-291.83330801 392.89095003 -334.22365137 380.63254107 -369.66796875 349.54296875 C-370.58964844 348.7540625 -371.51132813 347.96515625 -372.4609375 347.15234375 C-378.95441959 341.45599257 -384.38206836 335.35754416 -389.66796875 328.54296875 C-390.46976563 327.5684375 -391.2715625 326.59390625 -392.09765625 325.58984375 C-418.46621581 292.8961157 -431.62445075 247.30587446 -427.26806641 205.72607422 C-421.50221343 158.7259868 -399.95148919 116.46568706 -362.37890625 86.93359375 C-330.91174206 62.78957184 -293.22483781 49.3045174 -253.4745636 49.42271423 C-252.40344131 49.42185981 -251.33231902 49.42100538 -250.22873849 49.42012507 C-246.66980883 49.41848901 -243.1109272 49.42396073 -239.55200195 49.42944336 C-236.98883566 49.42972566 -234.42566929 49.42956666 -231.86250305 49.42900085 C-226.35966197 49.42877376 -220.85683613 49.43159464 -215.35399818 49.43723869 C-207.39799013 49.44539353 -199.44198779 49.44797298 -191.485976 49.44922668 C-178.5753642 49.45141096 -165.66475875 49.45805408 -152.75415039 49.4675293 C-140.21866894 49.47671959 -127.68318922 49.4837925 -115.14770508 49.48803711 C-114.37397619 49.48829983 -113.60024729 49.48856256 -112.80307207 49.48883324 C-108.92119054 49.49013835 -105.03930899 49.49140204 -101.15742743 49.49264514 C-68.99426993 49.50299831 -36.83112022 49.5205996 -4.66796875 49.54296875 C-4.67240997 48.97333908 -4.6768512 48.40370941 -4.681427 47.81681824 C-4.72562311 41.89605209 -4.75581965 35.97533269 -4.77783203 30.05444336 C-4.78789881 27.84381202 -4.80155323 25.63319403 -4.81884766 23.42260742 C-4.84306613 20.24785064 -4.85444502 17.07326969 -4.86328125 13.8984375 C-4.87360382 12.90772751 -4.88392639 11.91701752 -4.89456177 10.89628601 C-4.89471283 9.97555801 -4.89486389 9.05483002 -4.89501953 8.10620117 C-4.89946075 7.29567795 -4.90390198 6.48515472 -4.90847778 5.65007019 C-4.50397234 2.10619502 -3.48692827 0.7096384 0 0 Z " fill="#BBD75F" transform="translate(1511.66796875,728.45703125)"/>
<path d="M0 0 C28.05 0 56.1 0 85 0 C90.61 12.21 96.22 24.42 102 37 C105.9699618 45.61500953 105.9699618 45.61500953 109.94540405 54.22747803 C111.01716825 56.5474524 112.08833757 58.86770085 113.15942383 61.18798828 C116.58956929 68.61816293 120.02158026 76.04747147 123.45648193 83.47544861 C125.36750444 87.60831679 127.27770613 91.74156394 129.1875 95.875 C129.56249634 96.68653534 129.93749268 97.49807068 130.32385254 98.334198 C135.7973314 110.18340186 141.21908304 122.05508365 146.59661865 133.94812012 C150.07221369 141.6323499 153.59173654 149.29280925 157.1953125 156.91796875 C157.54163223 157.65166183 157.88795197 158.38535492 158.24476624 159.14128113 C159.90702558 162.66033746 161.57557971 166.17618452 163.25463867 169.68725586 C163.8535075 170.95028477 164.45222954 172.21338328 165.05078125 173.4765625 C165.57325439 174.57049316 166.09572754 175.66442383 166.6340332 176.79150391 C168.07483183 180.17577121 169.06318031 183.44844113 170 187 C171.65 187 173.3 187 175 187 C175 125.29 175 63.58 175 0 C190.84 0 206.68 0 223 0 C223 75.57 223 151.14 223 229 C194.95 229 166.9 229 138 229 C130.13605442 213.27210884 130.13605442 213.27210884 127.703125 207.85546875 C127.29670021 206.95504097 127.29670021 206.95504097 126.88206482 206.03642273 C126.30343956 204.75433341 125.72593001 203.47174 125.14950562 202.18865967 C123.53540201 198.59771039 121.91032934 195.01173139 120.28515625 191.42578125 C119.76868279 190.28592773 119.76868279 190.28592773 119.24177551 189.12304688 C115.10912095 180.0162736 110.89886344 170.94557124 106.6875 161.875 C105.88149004 160.13827443 105.07550054 158.40153936 104.26953125 156.66479492 C103.05428686 154.04630569 101.83898715 151.42784221 100.62350464 148.8094635 C96.3228601 139.54402083 92.032603 130.27379495 87.75 121 C87.37795441 120.19436615 87.00590881 119.3887323 86.62258911 118.5586853 C81.7363086 107.97358533 76.88260421 97.37420867 72.06524658 86.75756836 C71.13961579 84.71967846 70.21154749 82.68291666 69.28271484 80.64648438 C66.62758921 74.82054342 63.98582287 68.99084284 61.41934204 63.12519836 C60.59799075 61.2523297 59.76896957 59.38307067 58.93701172 57.51489258 C57.92327061 55.23373742 56.92398969 52.94608034 55.94189453 50.65112305 C55.49442871 49.65250244 55.04696289 48.65388184 54.5859375 47.625 C54.01431885 46.31402344 54.01431885 46.31402344 53.43115234 44.9765625 C51.90041336 42.39141973 51.90041336 42.39141973 47 42 C47 103.71 47 165.42 47 229 C31.49 229 15.98 229 0 229 C0 153.43 0 77.86 0 0 Z " fill="#FEFEFE" transform="translate(1627,1592)"/>
<path d="M0 0 C128.2 0 128.2 0 152 21 C153.21623047 21.92039062 153.21623047 21.92039062 154.45703125 22.859375 C167.43452367 33.78359289 174.53455222 51.55799417 177 68 C177.29161438 72.02523452 177.33433637 76.02776284 177.3125 80.0625 C177.30686035 81.15868652 177.3012207 82.25487305 177.29541016 83.38427734 C176.96613339 105.62186978 170.97399534 125.05704048 155.8125 141.75 C133.1798006 162.72158385 104.14118079 165.69336976 74.6875 165.25 C62.9621875 165.12625 62.9621875 165.12625 51 165 C51 186.78 51 208.56 51 231 C34.17 231 17.34 231 0 231 C0 154.77 0 78.54 0 0 Z " fill="#FEFEFE" transform="translate(850,1590)"/>
<path d="M0 0 C0.66999023 0.19335938 1.33998047 0.38671875 2.03027344 0.5859375 C12.8618347 3.77487512 21.8842537 8.36817399 31 15 C31.70640625 15.50273438 32.4128125 16.00546875 33.140625 16.5234375 C46.23517536 26.72774927 53.49880261 43.9923367 56 60 C56 63.96 56 67.92 56 72 C39.5 72 23 72 6 72 C5.01 68.04 4.02 64.08 3 60 C-1.83470617 50.59918245 -7.53942289 46.07424131 -17.546875 42.76171875 C-18.35640625 42.51035156 -19.1659375 42.25898437 -20 42 C-21.485 41.505 -21.485 41.505 -23 41 C-34.95938034 40.24619663 -45.01893061 41.18372268 -55.01953125 48.24609375 C-59.37998538 52.10771881 -62.77780641 57.56712082 -63.30859375 63.37890625 C-63.62981122 70.98837432 -63.79676897 77.04571896 -58.77734375 83.234375 C-52.14221805 89.82575261 -45.51194021 92.06821657 -36.20703125 92.9296875 C-34.68314762 93.08416755 -33.15930463 93.23904893 -31.63549805 93.39428711 C-30.84702484 93.47242645 -30.05855164 93.5505658 -29.2461853 93.631073 C-15.67533249 94.99127246 -2.18566215 96.36555445 11 100 C11.6614502 100.18143555 12.32290039 100.36287109 13.00439453 100.54980469 C31.83854145 105.8941951 49.52488677 116.27525352 60.01171875 133.2578125 C69.57592983 151.18318925 70.22806071 169.53629658 64.4765625 188.64453125 C58.87175459 205.85402377 46.43667216 218.74829142 30.51049805 226.96582031 C27.69821406 228.36838434 24.86197508 229.70185384 22 231 C20.92234375 231.515625 19.8446875 232.03125 18.734375 232.5625 C14.18100263 234.49254847 9.41007218 235.26366877 4.5625 236.125 C3.65951172 236.29386719 2.75652344 236.46273438 1.82617188 236.63671875 C-7.84132584 238.41481029 -16.98346494 239.15883489 -26.8125 239.125 C-27.92431641 239.12886719 -29.03613281 239.13273437 -30.18164062 239.13671875 C-40.11102406 239.12509864 -49.76726381 238.59971198 -59.4375 236.25 C-60.52635498 235.98775635 -60.52635498 235.98775635 -61.63720703 235.72021484 C-82.30100372 230.52117256 -102.06153563 218.66126964 -113.328125 200.2109375 C-119.72641732 187.92262842 -122 177.08285813 -122 163 C-105.83 163 -89.66 163 -73 163 C-71.68 166.96 -70.36 170.92 -69 175 C-64.11285444 184.17829776 -57.38070157 189.25478506 -47.56640625 192.66796875 C-40.84157053 194.57716479 -34.13116165 194.47570924 -27.1875 194.4375 C-25.27227539 194.4674707 -25.27227539 194.4674707 -23.31835938 194.49804688 C-11.32677011 194.49194429 0.07275923 192.52530339 9 184 C14.40424426 178.52647056 16.29160606 173.74308179 16.375 166.0625 C16.2761677 160.48719574 16.02956335 157.13288549 12 153 C11.54882812 152.49210937 11.09765625 151.98421875 10.6328125 151.4609375 C5.46648394 146.24320269 -1.02398806 144.67729249 -8 143 C-8.69625488 142.83209961 -9.39250977 142.66419922 -10.10986328 142.49121094 C-17.08318176 140.944155 -24.06305369 140.44366146 -31.1746521 139.91125488 C-54.46861385 138.10131012 -75.9253773 133.79804809 -94 118 C-95.01320313 117.14535156 -95.01320313 117.14535156 -96.046875 116.2734375 C-104.36081068 108.70066663 -110.25401333 97.87109792 -113 87 C-113.34675781 85.7934375 -113.69351562 84.586875 -114.05078125 83.34375 C-118.46680113 65.48533252 -114.10095666 46.44730258 -105.11474609 30.83056641 C-95.5722194 15.16042511 -78.86107954 4.52131026 -61.20947266 0.07324219 C-41.78605523 -4.41667928 -19.25561939 -5.78984456 0 0 Z " fill="#FDFDFE" transform="translate(1178,1588)"/>
<path d="M0 0 C45.21 0 90.42 0 137 0 C137 14.19 137 28.38 137 43 C108.62 43 80.24 43 51 43 C51 59.83 51 76.66 51 94 C78.39 94 105.78 94 134 94 C134 108.19 134 122.38 134 137 C106.61 137 79.22 137 51 137 C51 167.36 51 197.72 51 229 C34.17 229 17.34 229 0 229 C0 153.43 0 77.86 0 0 Z " fill="#FEFEFE" transform="translate(1347,1592)"/>
<path d="M0 0 C17.16 0 34.32 0 52 0 C52 75.57 52 151.14 52 229 C34.84 229 17.68 229 0 229 C0 153.43 0 77.86 0 0 Z " fill="#FDFDFE" transform="translate(1523,1592)"/>
<path d="M0 0 C10.7971875 -0.12375 10.7971875 -0.12375 21.8125 -0.25 C24.06167236 -0.28641602 26.31084473 -0.32283203 28.62817383 -0.36035156 C41.17312796 -0.47932481 51.98931654 -0.07193268 62.1484375 8.1640625 C69.64617602 15.59852896 73.20210296 23.25954346 73.43164062 33.74145508 C73.4588312 47.12261914 71.85289334 57.0841092 62.2421875 67.09375 C53.68181638 74.37155681 43.79418743 76.32007192 32.91015625 76.1953125 C32.07190308 76.19329834 31.2336499 76.19128418 30.36999512 76.18920898 C27.26744031 76.17882081 24.1649641 76.15089875 21.0625 76.125 C14.111875 76.08375 7.16125 76.0425 0 76 C0 50.92 0 25.84 0 0 Z " fill="#4F2C8B" transform="translate(901,1635)"/>
<path d="M0 0 C7.97235472 4.72329813 14.12969634 11.30182981 17.3046875 20.06640625 C20.05952967 31.68936394 17.90483765 42.19802474 12.0625 52.375 C6.80201724 59.07015988 0.47756316 64.18806909 -8 66 C-19.85528421 66.7103854 -30.05060222 66.85181827 -39.8125 59.25 C-46.88118657 52.59711852 -50.48722667 44.17435281 -51.28515625 34.56640625 C-51.57767436 22.75121842 -49.07869854 13.87752507 -41 5 C-29.32058776 -3.96284009 -13.58274596 -6.39470872 0 0 Z " fill="#FBFBFC" transform="translate(1582,1880)"/>
<path d="M0 0 C7.97235472 4.72329813 14.12969634 11.30182981 17.3046875 20.06640625 C20.05952967 31.68936394 17.90483765 42.19802474 12.0625 52.375 C6.80201724 59.07015988 0.47756316 64.18806909 -8 66 C-19.85528421 66.7103854 -30.05060222 66.85181827 -39.8125 59.25 C-46.88118657 52.59711852 -50.48722667 44.17435281 -51.28515625 34.56640625 C-51.57767436 22.75121842 -49.07869854 13.87752507 -41 5 C-29.32058776 -3.96284009 -13.58274596 -6.39470872 0 0 Z " fill="#FBFBFC" transform="translate(1017,1880)"/>
<path d="M0 0 C5.94 0 11.88 0 18 0 C25.28548199 12.81239936 32.30417272 25.75855057 39.25488281 38.75537109 C40.48939328 41.05064867 41.73240996 43.33949275 42.98730469 45.62353516 C43.47443436 46.51471794 43.47443436 46.51471794 43.97140503 47.42390442 C44.88162959 49.08792454 45.79592699 50.74971489 46.71044922 52.41137695 C48 55 48 55 48 57 C48.66 57 49.32 57 50 57 C50 38.19 50 19.38 50 0 C53.3 0 56.6 0 60 0 C60 21.78 60 43.56 60 66 C54.06 66 48.12 66 42 66 C40.12453561 62.54191782 38.24954483 59.08358065 36.375 55.625 C35.79830566 54.56112061 35.22161133 53.49724121 34.62744141 52.40112305 C31.45059147 46.53672815 28.28106292 40.66856998 25.125 34.79296875 C24.80979401 34.20640503 24.49458801 33.61984131 24.16983032 33.01550293 C22.63952882 30.16756126 21.11052219 27.31893784 19.58349609 24.46923828 C19.02742676 23.43395996 18.47135742 22.39868164 17.8984375 21.33203125 C17.41036621 20.42171143 16.92229492 19.5113916 16.41943359 18.57348633 C15.43344364 16.78584957 14.39554959 15.02626076 13.31884766 13.29174805 C12 11 12 11 12 9 C11.34 9 10.68 9 10 9 C10 27.81 10 46.62 10 66 C6.7 66 3.4 66 0 66 C0 44.22 0 22.44 0 0 Z " fill="#FDFDFE" transform="translate(1670,1879)"/>
<path d="M0 0 C6.35145422 3.85184966 10.68626848 9.34186551 12.5625 16.5 C13.46459151 26.04811145 12.45279169 33.02187674 6.5 40.6875 C1.67764226 45.92698151 -4.44738325 48.58803454 -11.5625 48.9375 C-18.869332 48.1125351 -23.56291614 46.18701451 -28.4375 40.5 C-29.159375 39.675 -29.88125 38.85 -30.625 38 C-35.57160318 31.17709906 -35.22449336 23.56875301 -34.4375 15.5 C-32.34640541 8.04986766 -28.11701293 3.28692051 -21.4375 -0.5 C-14.97656695 -2.65364435 -6.29561884 -2.81319976 0 0 Z " fill="#502D8C" transform="translate(1576.4375,1888.5)"/>
<path d="M0 0 C6.35145422 3.85184966 10.68626848 9.34186551 12.5625 16.5 C13.46459151 26.04811145 12.45279169 33.02187674 6.5 40.6875 C1.67764226 45.92698151 -4.44738325 48.58803454 -11.5625 48.9375 C-18.869332 48.1125351 -23.56291614 46.18701451 -28.4375 40.5 C-29.159375 39.675 -29.88125 38.85 -30.625 38 C-35.57160318 31.17709906 -35.22449336 23.56875301 -34.4375 15.5 C-32.34640541 8.04986766 -28.11701293 3.28692051 -21.4375 -0.5 C-14.97656695 -2.65364435 -6.29561884 -2.81319976 0 0 Z " fill="#502D8C" transform="translate(1011.4375,1888.5)"/>
<path d="M0 0 C5.31165188 3.26336782 9.83426914 8.34522273 11.4375 14.4375 C11.4375 16.0875 11.4375 17.7375 11.4375 19.4375 C7.8075 19.4375 4.1775 19.4375 0.4375 19.4375 C0.210625 18.15875 -0.01625 16.88 -0.25 15.5625 C-0.73266546 13.36684213 -0.73266546 13.36684213 -1.5625 11.4375 C-3.96382774 9.89261683 -3.96382774 9.89261683 -6.5625 9.4375 C-7.2225 9.1075 -7.8825 8.7775 -8.5625 8.4375 C-12.8773115 7.99669411 -16.50934134 7.96693975 -20.5 9.75 C-22.84628916 11.66969113 -24.42378811 13.27137973 -24.79296875 16.375 C-24.77878906 17.055625 -24.76460937 17.73625 -24.75 18.4375 C-24.74355469 19.118125 -24.73710938 19.79875 -24.73046875 20.5 C-24.61947746 22.65508209 -24.61947746 22.65508209 -23.5625 25.4375 C-22.31855469 25.60765625 -21.07460937 25.7778125 -19.79296875 25.953125 C5.14140866 29.5166109 5.14140866 29.5166109 11.4375 37.4375 C14.7308873 42.37758096 14.17240975 47.67847994 13.4375 53.4375 C11.45241839 58.79878341 8.06209695 62.47453099 3.25 65.5 C-5.19958297 69.21678764 -17.33471369 69.1628847 -25.9765625 66.01171875 C-32.05757386 63.34216801 -35.07831561 60.41563037 -37.84765625 54.4765625 C-38.81011068 51.73120068 -38.85013243 49.31382435 -38.5625 46.4375 C-35.2625 46.4375 -31.9625 46.4375 -28.5625 46.4375 C-28.19125 47.51 -27.82 48.5825 -27.4375 49.6875 C-25.58749053 53.83320304 -23.84456584 55.59178197 -19.5625 57.4375 C-12.89230907 58.18428982 -6.181177 58.57757779 -0.5625 54.4375 C1.88734292 52.06931851 2.38036378 50.82929125 2.875 47.4375 C2.65983072 44.40075355 2.65983072 44.40075355 0.875 42.1875 C-3.966288 38.71170349 -8.58998662 38.40719577 -14.375 38.125 C-21.71831571 37.60903302 -27.34458978 35.01182817 -33.0625 30.4375 C-36.59812654 25.72333128 -37.09140141 21.22235919 -36.5625 15.4375 C-35.54169836 10.41855858 -34.25411989 7.03197199 -30.5625 3.4375 C-21.74408118 -1.85355129 -9.76399011 -4.44508499 0 0 Z " fill="#FAFAFC" transform="translate(1839.5625,1878.5625)"/>
<path d="M0 0 C5.31165188 3.26336782 9.83426914 8.34522273 11.4375 14.4375 C11.4375 16.0875 11.4375 17.7375 11.4375 19.4375 C7.8075 19.4375 4.1775 19.4375 0.4375 19.4375 C0.210625 18.15875 -0.01625 16.88 -0.25 15.5625 C-0.73266546 13.36684213 -0.73266546 13.36684213 -1.5625 11.4375 C-3.96382774 9.89261683 -3.96382774 9.89261683 -6.5625 9.4375 C-7.2225 9.1075 -7.8825 8.7775 -8.5625 8.4375 C-12.8773115 7.99669411 -16.50934134 7.96693975 -20.5 9.75 C-22.84628916 11.66969113 -24.42378811 13.27137973 -24.79296875 16.375 C-24.77878906 17.055625 -24.76460937 17.73625 -24.75 18.4375 C-24.74355469 19.118125 -24.73710938 19.79875 -24.73046875 20.5 C-24.61947746 22.65508209 -24.61947746 22.65508209 -23.5625 25.4375 C-22.31855469 25.60765625 -21.07460938 25.7778125 -19.79296875 25.953125 C5.14140866 29.5166109 5.14140866 29.5166109 11.4375 37.4375 C14.7308873 42.37758096 14.17240975 47.67847994 13.4375 53.4375 C11.45241839 58.79878341 8.06209695 62.47453099 3.25 65.5 C-5.19958297 69.21678764 -17.33471369 69.1628847 -25.9765625 66.01171875 C-32.05757386 63.34216801 -35.07831561 60.41563037 -37.84765625 54.4765625 C-38.81011068 51.73120068 -38.85013243 49.31382435 -38.5625 46.4375 C-35.2625 46.4375 -31.9625 46.4375 -28.5625 46.4375 C-28.19125 47.51 -27.82 48.5825 -27.4375 49.6875 C-25.58749053 53.83320304 -23.84456584 55.59178197 -19.5625 57.4375 C-12.89230907 58.18428982 -6.181177 58.57757779 -0.5625 54.4375 C1.88734292 52.06931851 2.38036378 50.82929125 2.875 47.4375 C2.65983072 44.40075355 2.65983072 44.40075355 0.875 42.1875 C-3.966288 38.71170349 -8.58998662 38.40719577 -14.375 38.125 C-21.71831571 37.60903302 -27.34458978 35.01182817 -33.0625 30.4375 C-36.59812654 25.72333128 -37.09140141 21.22235919 -36.5625 15.4375 C-35.54169836 10.41855858 -34.25411989 7.03197199 -30.5625 3.4375 C-21.74408118 -1.85355129 -9.76399011 -4.44508499 0 0 Z " fill="#FAFAFC" transform="translate(886.5625,1878.5625)"/>
<path d="M0 0 C3.63 0 7.26 0 11 0 C11.09944171 6.5103722 11.17173898 13.02029483 11.21972656 19.53125 C11.23974747 21.74259145 11.26697259 23.95388058 11.30175781 26.16503906 C11.35069627 29.35755378 11.37306467 32.54936396 11.390625 35.7421875 C11.41127014 36.71864227 11.43191528 37.69509705 11.45318604 38.70114136 C11.45604576 47.60071107 9.07954462 55.96136451 2.79296875 62.52734375 C-5.48839163 69.32924542 -15.8712901 68.8223309 -26 68 C-33.09944739 66.66242296 -36.98009223 62.71244758 -41.1875 57.0625 C-45.11647268 50.423891 -45.27316598 44.65300257 -45.1953125 37.1328125 C-45.1924826 36.09808807 -45.18965271 35.06336365 -45.18673706 33.99728394 C-45.17558048 30.70640286 -45.15048397 27.41579822 -45.125 24.125 C-45.11496437 21.88802478 -45.10583953 19.65104527 -45.09765625 17.4140625 C-45.0756559 11.94260252 -45.041157 6.47134806 -45 1 C-41.7 1 -38.4 1 -35 1 C-34.98598145 2.93649414 -34.98598145 2.93649414 -34.97167969 4.91210938 C-34.93163439 9.72820816 -34.86583515 14.54367791 -34.79248047 19.359375 C-34.76435501 21.43871952 -34.74309879 23.51816929 -34.72900391 25.59765625 C-34.70745762 28.59689892 -34.66074724 31.59488745 -34.609375 34.59375 C-34.60814636 35.51490601 -34.60691772 36.43606201 -34.60565186 37.38513184 C-34.44326548 44.63463019 -32.6404068 49.87951923 -27.9375 55.4375 C-22.7256727 58.20974857 -17.11704623 58.8352564 -11.390625 57.30078125 C-7.36345249 55.6359534 -4.02044073 54.04088147 -2 50 C-1.11938049 47.06383566 -0.85350665 44.38234602 -0.79467773 41.32324219 C-0.77473251 40.40258972 -0.75478729 39.48193726 -0.73423767 38.53338623 C-0.71752518 37.54783752 -0.70081268 36.56228882 -0.68359375 35.546875 C-0.66281265 34.53151672 -0.64203156 33.51615845 -0.62062073 32.47003174 C-0.55529403 29.23008927 -0.49631863 25.99006652 -0.4375 22.75 C-0.39429874 20.55207507 -0.35068393 18.35415822 -0.30664062 16.15625 C-0.19962988 10.77091539 -0.09831478 5.3855001 0 0 Z " fill="#FAFAFC" transform="translate(1254,1878)"/>
<path d="M0 0 C16.17 0 32.34 0 49 0 C49 2.97 49 5.94 49 9 C42.73 9 36.46 9 30 9 C30 27.81 30 46.62 30 66 C26.37 66 22.74 66 19 66 C19 47.19 19 28.38 19 9 C12.73 9 6.46 9 0 9 C0 6.03 0 3.06 0 0 Z " fill="#FBFBFC" transform="translate(1332,1879)"/>
<path d="M0 0 C3.63 0 7.26 0 11 0 C11 18.81 11 37.62 11 57 C20.24 57 29.48 57 39 57 C39 60.3 39 63.6 39 67 C26.13 67 13.26 67 0 67 C0 44.89 0 22.78 0 0 Z " fill="#F7F6FA" transform="translate(1106,1878)"/>
<path d="M0 0 C3.63 0 7.26 0 11 0 C11 21.78 11 43.56 11 66 C7.37 66 3.74 66 0 66 C0 44.22 0 22.44 0 0 Z " fill="#FFFFFF" transform="translate(1449,1879)"/>
</svg>
