<?xml version="1.0" encoding="UTF-8"?>
<svg version="1.1" xmlns="http://www.w3.org/2000/svg" width="2073" height="2012">
<path d="M0 0 C684.09 0 1368.18 0 2073 0 C2073 663.96 2073 1327.92 2073 2012 C1388.91 2012 704.82 2012 0 2012 C0 1348.04 0 684.08 0 0 Z " fill="#4E2A8A" transform="translate(0,0)"/>
<path d="M0 0 C3.46392078 0.45644637 4.7467985 1.66614601 7.35546875 3.9765625 C8.79019531 5.20632813 8.79019531 5.20632813 10.25390625 6.4609375 C10.78983398 6.92048828 11.32576172 7.38003906 11.87792969 7.85351562 C15.33260068 10.74465873 18.91518341 13.47400484 22.48046875 16.2265625 C24.04970926 17.44241141 25.61872096 18.65855571 27.1875 19.875 C27.94885254 20.46506836 28.71020508 21.05513672 29.49462891 21.66308594 C32.56247536 24.04650833 35.61643596 26.44731098 38.66796875 28.8515625 C44.06678449 33.10385341 49.48939532 37.32484135 54.91796875 41.5390625 C60.39748881 45.79325273 65.84746996 50.07790771 71.25 54.4296875 C74.75287726 57.21388073 78.30883838 59.9282035 81.86157227 62.64819336 C85.07887947 65.11575434 88.26398207 67.61619911 91.41796875 70.1640625 C95.81413428 73.70660366 100.29708801 77.12499205 104.79296875 80.5390625 C111.34799904 85.52079799 117.78553336 90.62588538 124.13916016 95.86206055 C128.04262726 99.07087784 132.01782189 102.15108377 136.08178711 105.15454102 C138.62961493 107.07727455 138.62961493 107.07727455 139.0546875 110.1171875 C138.66796875 113.3515625 138.66796875 113.3515625 136.5 115.7734375 C135.50355469 116.54171875 134.50710938 117.31 133.48046875 118.1015625 C132.94019043 118.52638916 132.39991211 118.95121582 131.84326172 119.38891602 C130.13148487 120.72810646 128.40130369 122.04044391 126.66796875 123.3515625 C125.60043479 124.17692888 124.53400178 125.00372148 123.46875 125.83203125 C121.31984687 127.49809442 119.16297996 129.15303944 117 130.80078125 C113.6346366 133.36895508 110.30481024 135.98061172 106.98046875 138.6015625 C101.55935762 142.87281052 96.11847704 147.11789585 90.66796875 151.3515625 C83.54459526 156.88596231 76.44100112 162.44464465 69.35351562 168.02490234 C65.87373797 170.76376558 62.39062563 173.4983878 58.90820312 176.23388672 C56.0406281 178.48663962 53.17373921 180.74025139 50.30859375 182.99609375 C39.09622377 191.82088466 27.82650424 200.57165352 16.5546875 209.3203125 C15.72614258 209.96379639 14.89759766 210.60728027 14.04394531 211.27026367 C12.44350304 212.51321829 10.84260635 213.75558808 9.24121094 214.99731445 C8.52481445 215.55378662 7.80841797 216.11025879 7.0703125 216.68359375 C6.43601318 217.17577393 5.80171387 217.6679541 5.14819336 218.17504883 C3.70628778 219.27538431 3.70628778 219.27538431 2.66796875 220.3515625 C0.23046875 220.5390625 0.23046875 220.5390625 -2.33203125 220.3515625 C-4.33203125 218.3515625 -4.33203125 218.3515625 -4.57254028 216.28878784 C-4.56809906 215.44051422 -4.56365784 214.5922406 -4.55908203 213.71826172 C-4.55893097 212.75741669 -4.55877991 211.79657166 -4.55862427 210.80661011 C-4.5483017 209.76699127 -4.53797913 208.72737244 -4.52734375 207.65625 C-4.52309891 206.06237961 -4.52309891 206.06237961 -4.51876831 204.43630981 C-4.50754764 201.03294751 -4.48243962 197.62984564 -4.45703125 194.2265625 C-4.44700389 191.92318088 -4.43787762 189.61979514 -4.4296875 187.31640625 C-4.40760218 181.66136905 -4.37410614 176.00648437 -4.33203125 170.3515625 C-36.9955005 170.41072511 -69.65889069 170.48508992 -102.32227303 170.58054878 C-106.18229628 170.59181636 -110.0423199 170.6029549 -113.90234375 170.61401367 C-115.05499008 170.6173192 -115.05499008 170.6173192 -116.23092219 170.6206915 C-128.65793529 170.65602194 -141.08494833 170.68091005 -153.51199296 170.70190952 C-166.272191 170.72370552 -179.03232411 170.75679188 -191.79246688 170.80026406 C-199.66020991 170.82671548 -207.52787212 170.84445872 -215.39565739 170.85090854 C-221.4382317 170.85680768 -227.48064734 170.87844832 -233.52316666 170.90583801 C-235.99500122 170.91460837 -238.46685977 170.91834291 -240.93870926 170.91657066 C-244.32411614 170.91491027 -247.70896873 170.93168308 -251.09429932 170.95283508 C-252.06320988 170.94798751 -253.03212044 170.94313993 -254.03039193 170.93814546 C-268.75033369 171.08902171 -281.32483621 175.75603189 -292.0078125 185.90234375 C-298.63094693 192.88168037 -302.59859669 200.15193867 -305.33203125 209.3515625 C-305.52410156 209.97289062 -305.71617187 210.59421875 -305.9140625 211.234375 C-308.54192945 224.54562629 -305.09214622 236.88898297 -297.88671875 248.109375 C-289.79346826 259.78155033 -278.9859437 266.2793743 -265.24395752 269.90201759 C-261.07797307 270.54516475 -256.97015825 270.49456259 -252.76074219 270.48959351 C-251.79123438 270.49241479 -250.82172657 270.49523607 -249.82283974 270.49814284 C-246.57068716 270.50648241 -243.31856865 270.5078266 -240.06640625 270.50927734 C-237.73523869 270.51394639 -235.40407204 270.51909011 -233.07290649 270.52467346 C-228.04801519 270.53595536 -223.02312983 270.54438946 -217.99822998 270.55079269 C-210.03607101 270.561487 -202.07394953 270.58172229 -194.11181641 270.60391235 C-191.38296523 270.61139235 -188.65411387 270.6188062 -185.92526245 270.62619972 C-185.2432087 270.62805029 -184.56115494 270.62990085 -183.85843289 270.6318075 C-176.09540462 270.65273146 -168.33237174 270.6715566 -160.56933594 270.68945312 C-159.85992442 270.69109131 -159.1505129 270.69272949 -158.41960406 270.69441731 C-146.96249766 270.72061632 -135.50538806 270.73930668 -124.0482645 270.75604503 C-112.25628811 270.77354897 -100.46437385 270.80248718 -88.6724472 270.8409344 C-82.06380752 270.86210163 -75.45523472 270.87744732 -68.84655762 270.87974167 C-62.61501601 270.88190743 -56.38365769 270.89797102 -50.15217209 270.92413139 C-47.88084299 270.93125476 -45.60949152 270.93345977 -43.33815384 270.93002892 C-7.21786785 270.88423701 28.5343971 278.46990524 58.66796875 299.3515625 C59.74175781 300.06699219 60.81554688 300.78242187 61.921875 301.51953125 C83.5712984 316.19710643 100.29466639 335.60341979 113.48046875 358.0390625 C113.93679688 358.81064697 114.393125 359.58223145 114.86328125 360.37719727 C117.59908486 365.12601567 119.81177915 369.90147736 121.77026367 375.01928711 C122.54258424 377.0258083 123.39482402 379.00123892 124.26171875 380.96875 C125.83430948 384.75170437 127.03862943 388.5432995 128.16796875 392.4765625 C128.38227539 393.21865967 128.59658203 393.96075684 128.81738281 394.7253418 C133.32292898 410.52703294 134.86726624 425.44408494 134.90820312 441.8137207 C134.91791142 444.15026439 134.94905249 446.48592662 134.98046875 448.82226562 C135.04079194 457.59480748 134.34322544 465.66873202 132.38256836 474.22753906 C131.53502185 477.93276802 131.05338465 481.57448672 130.66796875 485.3515625 C130.00796875 485.3515625 129.34796875 485.3515625 128.66796875 485.3515625 C128.51521484 486.80755859 128.51521484 486.80755859 128.359375 488.29296875 C127.70208036 492.84830641 126.21789502 496.99337207 124.60546875 501.2890625 C124.29456299 502.11954102 123.98365723 502.95001953 123.66333008 503.80566406 C116.59591357 522.2552667 106.60355168 538.42059709 93.66796875 553.3515625 C92.9615625 554.18042969 92.25515625 555.00929688 91.52734375 555.86328125 C62.48644019 589.13496393 19.06112912 609.9401555 -24.88923407 613.14975643 C-30.06339553 613.45304969 -35.22271777 613.5015759 -40.40460205 613.50305176 C-41.54614801 613.50728417 -42.68769397 613.51151658 -43.86383224 613.51587725 C-47.64913181 613.52878559 -51.4344104 613.53490029 -55.21972656 613.54101562 C-57.9490541 613.54842536 -60.67837636 613.55730569 -63.40769958 613.56614685 C-69.26353711 613.58440185 -75.11937514 613.59928412 -80.97522736 613.61192322 C-89.44268496 613.63029142 -97.91011564 613.65495156 -106.37755176 613.68129712 C-120.12001935 613.72397892 -133.86249431 613.76312615 -147.60498047 613.79931641 C-148.83616016 613.80256061 -148.83616016 613.80256061 -150.09221217 613.80587035 C-157.59421717 613.82560634 -165.09622278 613.84510957 -172.59822845 613.86458588 C-177.60666419 613.87759533 -182.61509976 613.89066942 -187.62353516 613.90380859 C-188.44695212 613.90596746 -189.27036909 613.90812633 -190.11873809 613.91035062 C-203.827346 613.94641184 -217.53593992 613.98635025 -231.24452853 614.02911139 C-239.69739585 614.05529099 -248.15025886 614.07794414 -256.6031473 614.09609497 C-262.38252066 614.10872676 -268.16187737 614.12483935 -273.94123361 614.14374411 C-277.27909242 614.15453521 -280.61691933 614.16310084 -283.95479393 614.16843987 C-287.56431478 614.17444202 -291.1737652 614.1864675 -294.78326416 614.20007324 C-295.84927644 614.20036923 -296.91528872 614.20066522 -298.0136044 614.20097017 C-298.97247894 614.20582792 -299.93135348 614.21068566 -300.91928482 614.21569061 C-301.75331841 614.21780658 -302.58735199 614.21992255 -303.44665933 614.22210264 C-305.3444634 614.14499266 -305.3444634 614.14499266 -306.33203125 615.3515625 C-306.43434373 617.28912631 -306.46557854 619.23045729 -306.47006226 621.17071533 C-306.47551559 622.43540146 -306.48096893 623.70008759 -306.48658752 625.00309753 C-306.48770744 626.41775508 -306.48875794 627.83241267 -306.48974609 629.24707031 C-306.49441186 630.72677258 -306.49955503 632.20647341 -306.50514221 633.68617249 C-306.51644333 636.88046383 -306.52486783 640.07474573 -306.53126144 643.2690506 C-306.54192008 648.3196818 -306.56215981 653.37024548 -306.5843811 658.4208374 C-306.64637516 672.78557235 -306.70031033 687.15030401 -306.73339844 701.51513672 C-306.75173953 709.44276083 -306.78067092 717.37027259 -306.82140315 725.29781413 C-306.84248563 729.49486911 -306.85793212 733.69178241 -306.86021042 737.88889313 C-306.86235681 741.83862342 -306.87822504 745.78805897 -306.90460014 749.73769951 C-306.91179558 751.1868852 -306.91389291 752.63610659 -306.91049767 754.08530617 C-306.90660064 756.06504979 -306.92282208 758.04480245 -306.94003296 760.0244751 C-306.94334311 761.13209324 -306.94665325 762.23971138 -306.95006371 763.38089371 C-307.38931115 766.79704436 -308.23033256 768.63591092 -310.33203125 771.3515625 C-313.15783194 773.27020553 -315.42178764 773.60430077 -318.79684448 773.61898804 C-319.68557251 773.62751801 -320.57430054 773.63604797 -321.48995972 773.64483643 C-322.45733063 773.64393005 -323.42470154 773.64302368 -324.42138672 773.64208984 C-325.95862396 773.65216568 -325.95862396 773.65216568 -327.5269165 773.66244507 C-330.91773312 773.68145668 -334.30835214 773.68535086 -337.69921875 773.6875 C-340.05567507 773.69392562 -342.41213058 773.7006538 -344.76858521 773.70767212 C-349.70983734 773.71965274 -354.65101952 773.72335212 -359.59228516 773.72216797 C-365.92318848 773.72196472 -372.25364323 773.74927039 -378.58444023 773.78371239 C-383.45205749 773.80595209 -388.31956629 773.8100064 -393.18722916 773.80894852 C-395.52121655 773.81130875 -397.85520674 773.82015593 -400.18914413 773.83561325 C-403.45437772 773.85521362 -406.71863738 773.84945796 -409.98388672 773.83740234 C-410.94720917 773.84864136 -411.91053162 773.85988037 -412.90304565 773.87145996 C-418.51687905 773.81880341 -421.97223454 773.25641176 -426.33203125 769.3515625 C-428.55946927 765.93960123 -428.58754553 763.04846338 -428.59945679 759.02702332 C-428.60798676 757.725327 -428.61651672 756.42363068 -428.62530518 755.08248901 C-428.6246061 753.6411742 -428.62368301 752.19985947 -428.62255859 750.75854492 C-428.62854444 749.23863902 -428.63535012 747.71873615 -428.64291382 746.19883728 C-428.66060054 742.06541403 -428.66527103 737.9320736 -428.66654539 733.79861617 C-428.66796893 731.20669624 -428.67224295 728.6147972 -428.67753983 726.02288246 C-428.69606669 716.95135801 -428.70420933 707.87989234 -428.70263672 698.80834961 C-428.70144274 690.40507248 -428.72239073 682.00205531 -428.75412405 673.59884375 C-428.78049425 666.35259162 -428.79099505 659.10642306 -428.7897259 651.86012346 C-428.78922121 647.5473391 -428.79462272 643.23478439 -428.816082 638.92204857 C-429.01740692 595.34103737 -421.09761036 559.3682293 -390.33203125 526.9765625 C-367.45860473 505.29446028 -336.62215566 491.97656947 -305.03613281 492.09327698 C-303.85828342 492.08960127 -302.68043404 492.08592557 -301.46689224 492.08213848 C-298.23347153 492.07394881 -295.00019481 492.07450337 -291.76677132 492.07886541 C-288.26568485 492.08136066 -284.76462587 492.07224919 -281.2635498 492.06448364 C-275.20690422 492.05248411 -269.15028485 492.04733312 -263.09362793 492.04660225 C-254.32383496 492.04527146 -245.55410521 492.03011515 -236.78433466 492.01110708 C-222.53591844 491.98031969 -208.28750061 491.9561288 -194.0390625 491.93823242 C-193.18769919 491.93715974 -192.33633588 491.93608706 -191.45917368 491.93498188 C-181.96025132 491.92316099 -172.46132832 491.91295409 -162.96240234 491.90454102 C-159.51660155 491.90146685 -156.07080076 491.8983781 -152.625 491.89526367 C-151.77468279 491.89449833 -150.92436559 491.89373299 -150.04828119 491.89294446 C-135.85034087 491.87984551 -121.65244651 491.85518486 -107.45454025 491.82152027 C-98.71076855 491.80128155 -89.96709529 491.79093378 -81.22329998 491.79350948 C-75.22982821 491.79454759 -69.23643417 491.78485892 -63.24298954 491.76687045 C-59.79031093 491.75686665 -56.33780438 491.75165277 -52.88511658 491.75963783 C-49.13254659 491.7657984 -45.3804579 491.75351215 -41.62792969 491.73683167 C-40.55047611 491.74304348 -39.47302254 491.7492553 -38.36291885 491.75565535 C-24.23468072 491.64172245 -10.52591833 487.54544958 -0.33203125 477.3515625 C8.7738248 466.09713368 12.82824977 455.25788496 12.91796875 440.9140625 C12.93859375 440.09357422 12.95921875 439.27308594 12.98046875 438.42773438 C13.01562838 432.92085685 12.14020427 429.27137284 9.66796875 424.3515625 C9.23484375 423.2171875 8.80171875 422.0828125 8.35546875 420.9140625 C2.72368357 409.02473824 -7.4186648 400.62029076 -19.33203125 395.3515625 C-25.10766361 393.3422967 -30.26190414 393.06472181 -36.34951782 393.08654785 C-37.34271322 393.08216658 -38.33590861 393.07778531 -39.35920084 393.07327127 C-42.67912924 393.06097387 -45.99889914 393.06275789 -49.31884766 393.06445312 C-51.70270013 393.05842731 -54.08655048 393.05150266 -56.47039795 393.04374695 C-62.26975916 393.02692538 -68.06908502 393.01897797 -73.86846764 393.0144819 C-80.63212851 393.00853244 -87.39573498 392.98967855 -94.15936641 392.96959645 C-106.23757991 392.9338991 -118.31579757 392.90557945 -130.39404297 392.88330078 C-131.11638443 392.88196579 -131.83872588 392.8806308 -132.58295648 392.87925535 C-137.70764773 392.86983196 -142.83233943 392.86067042 -147.95703125 392.8515625 C-153.80061884 392.84117129 -159.64420617 392.83065127 -165.48779297 392.81982422 C-166.56724939 392.81782811 -166.56724939 392.81782811 -167.66851301 392.81579167 C-179.69554044 392.79331082 -191.72253671 392.76309004 -203.7495321 392.72743177 C-210.49425554 392.70777464 -217.23894083 392.69233274 -223.98369217 392.68708801 C-230.33174342 392.68203443 -236.6797134 392.66813306 -243.02773285 392.64759254 C-245.35080486 392.64174033 -247.67388824 392.63923936 -249.99696732 392.64043236 C-272.42857745 392.64866419 -272.42857745 392.64866419 -283.33203125 390.3515625 C-284.32108271 390.15274223 -285.31013416 389.95392197 -286.32915688 389.74907684 C-289.02747259 389.19589115 -291.71075829 388.59630441 -294.39453125 387.9765625 C-295.3469873 387.75742187 -296.29944336 387.53828125 -297.28076172 387.3125 C-304.11604685 385.70666897 -310.7720159 383.87614493 -317.33203125 381.3515625 C-318.71068359 380.83529297 -318.71068359 380.83529297 -320.1171875 380.30859375 C-338.20589269 373.17536277 -354.61557224 363.01996337 -369.33203125 350.3515625 C-370.26144531 349.5575 -371.19085937 348.7634375 -372.1484375 347.9453125 C-378.62591529 342.25161853 -384.03245234 336.13737019 -389.33203125 329.3515625 C-390.01007812 328.53945313 -390.688125 327.72734375 -391.38671875 326.890625 C-396.74649187 320.44638416 -401.14497701 313.60049817 -405.33203125 306.3515625 C-405.86763672 305.45002441 -405.86763672 305.45002441 -406.4140625 304.53027344 C-419.90511734 281.65983683 -427.60863721 254.89697841 -428.33203125 228.3515625 C-428.37199219 227.20171875 -428.41195312 226.051875 -428.453125 224.8671875 C-429.14260566 187.06742412 -429.14260566 187.06742412 -421.33203125 175.3515625 C-420.99310821 173.86328603 -420.71687458 172.36013123 -420.484375 170.8515625 C-419.3859425 164.98191354 -417.30637138 159.79529733 -414.89453125 154.3515625 C-414.45423584 153.35261963 -414.01394043 152.35367676 -413.56030273 151.32446289 C-406.74719384 136.25296738 -397.88458191 123.03150738 -387.33203125 110.3515625 C-386.41744141 109.22427734 -386.41744141 109.22427734 -385.484375 108.07421875 C-382.70347979 104.7101179 -379.78341814 102.00647549 -376.33203125 99.3515625 C-375.58953125 98.6090625 -374.84703125 97.8665625 -374.08203125 97.1015625 C-354.41902315 77.4385544 -328.50626499 62.53769002 -301.46199048 55.88265264 C-299.98359804 55.51402603 -298.50791844 55.13441426 -297.03455055 54.74619162 C-280.80160167 50.50815661 -265.47102862 49.65871868 -248.75219727 49.78393555 C-246.06901042 49.78534968 -243.38589161 49.78476573 -240.70271301 49.78172302 C-234.9773375 49.77912844 -229.25225161 49.79452658 -223.52694893 49.82291222 C-215.24964896 49.86392328 -206.97248594 49.87660737 -198.69509541 49.88285217 C-185.25864678 49.89373715 -171.82235178 49.92685205 -158.38598633 49.97436523 C-145.35051225 50.02041225 -132.31508023 50.05572955 -119.27954102 50.0769043 C-118.47312086 50.07821791 -117.6667007 50.07953153 -116.83584357 50.08088496 C-112.78940104 50.08741116 -108.74295822 50.09372946 -104.6965152 50.09994447 C-71.24157591 50.15159654 -37.78682257 50.23950149 -4.33203125 50.3515625 C-4.33647247 49.75465607 -4.3409137 49.15774963 -4.3454895 48.54275513 C-4.38963706 42.34639879 -4.41986184 36.15008692 -4.44189453 29.95361328 C-4.45197017 27.63914171 -4.465631 25.32468291 -4.48291016 23.01025391 C-4.5070899 19.68909557 -4.51849855 16.3681051 -4.52734375 13.046875 C-4.53766632 12.00725616 -4.54798889 10.96763733 -4.55862427 9.89651489 C-4.55877533 8.93566986 -4.55892639 7.97482483 -4.55908203 6.98486328 C-4.56352325 6.13658966 -4.56796448 5.28831604 -4.57254028 4.41433716 C-4.20660606 1.27582781 -3.05451371 0.46047945 0 0 Z " fill="#BBD75F" transform="translate(1187.33203125,332.6484375)"/>
<path d="M0 0 C28.05 0 56.1 0 85 0 C89.43708609 8.87417219 89.43708609 8.87417219 91.0625 13.1875 C92.43456205 16.70876861 94.04236125 19.76564032 96 23 C96.77179141 24.96382526 97.47936137 26.9390669 98.15625 28.9375 C98.98609967 31.1208154 98.98609967 31.1208154 100.4765625 33.42578125 C101.99252735 35.98737314 102.93457513 38.37038655 103.875 41.1875 C105.83257683 46.72170216 108.29644684 51.79867595 111 57 C118.9123215 72.44238538 118.9123215 72.44238538 121.9375 80.4375 C123.57348622 84.38311383 125.554479 88.15343725 127.49755859 91.95385742 C129.07608627 95.0668509 130.52435887 98.14619405 131.6875 101.4375 C132.87892421 104.67136571 134.26927674 107.28305404 136.02734375 110.2109375 C137.38643885 112.71079916 138.29153317 115.31378253 139.19140625 118.0078125 C139.99106187 120.13116917 139.99106187 120.13116917 141.47265625 122.41796875 C142.98982657 124.98280144 143.93353137 127.3672599 144.875 130.1875 C146.83257683 135.72170216 149.29644684 140.79867595 152 146 C160.07803152 161.76579969 160.07803152 161.76579969 162.9921875 169.484375 C164.72965795 173.82131675 166.80182875 178.00676811 168.828125 182.21484375 C170 185 170 185 170 188 C171.65 188 173.3 188 175 188 C175 125.96 175 63.92 175 0 C191.17 0 207.34 0 224 0 C224 75.57 224 151.14 224 229 C195.62 229 167.24 229 138 229 C134.28819948 222.19503238 131.52623455 216.97721925 129 210 C128.505 209.175 128.01 208.35 127.5 207.5 C125.85974578 204.76624297 124.86302907 202.0718001 123.84375 199.0625 C123.01667348 196.88381122 123.01667348 196.88381122 121.53515625 194.60546875 C119.43995127 191.04948472 118.27806984 187.32326752 116.96484375 183.42578125 C116.13344093 180.86963675 116.13344093 180.86963675 114 179 C112.73652475 175.94992642 111.63476642 172.85423808 110.51171875 169.75 C109.05819709 165.95883452 107.22418484 162.391558 105.38500977 158.77539062 C102.83337854 153.6622329 100.49844006 148.44760552 98.125 143.25 C94.86119609 136.12592802 91.57562067 129.03573425 88 122.0625 C85.50614363 117.19007503 83.5247628 112.31103916 81.82421875 107.109375 C81.09533085 104.82781974 81.09533085 104.82781974 79 103 C77.89678554 100.20748839 76.95836846 97.37640637 76 94.53125 C75.14753904 91.88231552 75.14753904 91.88231552 73 90 C71.73652475 86.94992642 70.63476642 83.85423808 69.51171875 80.75 C68.04901434 76.93359047 66.20384338 73.33921107 64.35327148 69.69873047 C62.01694525 65.03956573 59.85373222 60.30253703 57.6875 55.5625 C57.23310547 54.58345703 56.77871094 53.60441406 56.31054688 52.59570312 C55.66762695 51.18901367 55.66762695 51.18901367 55.01171875 49.75390625 C54.43103638 48.49042358 54.43103638 48.49042358 53.83862305 47.20141602 C53 45 53 45 53 42 C51.35 42 49.7 42 48 42 C48 103.71 48 165.42 48 229 C32.16 229 16.32 229 0 229 C0 153.43 0 77.86 0 0 Z " fill="#FCFCFD" transform="translate(1302,1196)"/>
<path d="M0 0 C125.73684211 0 125.73684211 0 151 20 C151.61875 20.45632813 152.2375 20.91265625 152.875 21.3828125 C158.37833531 25.68229321 162.07156044 31.29215784 166 37 C167.11375 38.485 167.11375 38.485 168.25 40 C175.84862607 53.02621613 177.51122684 68.33681936 177.375 83.125 C177.38660156 84.39214844 177.39820313 85.65929688 177.41015625 86.96484375 C177.38510253 95.07389841 176.38696143 102.25388682 174 110 C173.64679688 111.16273437 173.29359375 112.32546875 172.9296875 113.5234375 C165.90334309 132.52059091 153.45274902 146.99039142 135.12841797 155.91113281 C115.75208823 164.62671148 95.68259839 165.56391952 74.75 165.25 C62.99375 165.12625 62.99375 165.12625 51 165 C51 186.78 51 208.56 51 231 C34.17 231 17.34 231 0 231 C0 154.77 0 78.54 0 0 Z " fill="#FDFDFE" transform="translate(525,1194)"/>
<path d="M0 0 C1.18078125 -0.00773437 2.3615625 -0.01546875 3.578125 -0.0234375 C25.50928426 0.02486902 45.07651267 6.08390368 62 20.25 C63.03125 21.013125 64.0625 21.77625 65.125 22.5625 C69.14295706 26.31841638 71.98629735 30.67440123 75 35.25 C75.67417969 36.17039062 76.34835937 37.09078125 77.04296875 38.0390625 C79.35257139 41.82847042 80.51841663 45.43594601 81.6875 49.6875 C81.89955078 50.41259766 82.11160156 51.13769531 82.33007812 51.88476562 C84.60765607 59.8814352 85 66.78648576 85 75.25 C68.5 75.25 52 75.25 35 75.25 C33.35 69.97 31.7 64.69 30 59.25 C27.5612603 55.56700535 26.29030534 53.80091088 23 51.25 C22.24976563 50.65445312 21.49953125 50.05890625 20.7265625 49.4453125 C13.70725662 44.97848149 7.03106644 44.68969613 -1.125 44.625 C-2.13812256 44.61404297 -3.15124512 44.60308594 -4.19506836 44.59179688 C-12.59247629 44.75032878 -19.24945867 46.84399235 -26.3125 51.375 C-32.09121843 57.55688483 -34.32159294 63.32856199 -34.6875 71.8125 C-34.43341577 78.80687417 -32.92407932 83.26098777 -28 88.25 C-22.35583666 93.36383927 -16.38129899 95.3258091 -8.80078125 95.92578125 C-7.60493408 96.02850342 -6.40908691 96.13122559 -5.17700195 96.23706055 C-3.26407349 96.39815308 -3.26407349 96.39815308 -1.3125 96.5625 C30.77111763 99.51855842 60.94701896 104.87970575 84 129.25 C90.01851188 136.91386046 96.0919234 147.14970855 95 157.25 C95.66 157.25 96.32 157.25 97 157.25 C97.05883728 160.72909371 97.09387399 164.20805674 97.125 167.6875 C97.14175781 168.66138672 97.15851563 169.63527344 97.17578125 170.63867188 C97.294692 188.415829 89.85780721 204.72124256 77.76171875 217.640625 C57.72256045 236.92544509 29.3199011 242.415086 2.47314453 242.49023438 C0.39964812 242.49988528 -1.67283081 242.53097498 -3.74609375 242.5625 C-28.60084369 242.7584755 -55.02800744 234.85825897 -73.25 217.5 C-81.74929718 208.56414181 -87.18209963 198.9355574 -91 187.25 C-91.24621094 186.54359375 -91.49242187 185.8371875 -91.74609375 185.109375 C-93.70613449 178.67503436 -93 173.38977275 -93 166.25 C-76.5 166.25 -60 166.25 -43 166.25 C-42.34 169.55 -41.68 172.85 -41 176.25 C-37.44814039 184.80161104 -32.06201593 190.09644871 -23.62109375 193.6875 C-6.53034093 200.06708112 11.88561116 200.41100952 28.875 193.375 C30.26348235 192.69347386 31.63969715 191.98616389 33 191.25 C33.63679687 190.91484375 34.27359375 190.5796875 34.9296875 190.234375 C40.37108637 186.91815766 43.19334712 182.30148776 45 176.25 C45.7739767 170.07855419 46.00011206 164.49025101 43.4375 158.75 C35.85463185 150.97269933 29.47565013 147.5842593 18.625 145.8125 C17.88733398 145.69036133 17.14966797 145.56822266 16.38964844 145.44238281 C10.95668556 144.58835768 5.50963612 143.97186092 0.0390625 143.41796875 C-26.60552692 140.6864317 -49.12139106 136.74227555 -69 117.25 C-69.84691406 116.43982422 -69.84691406 116.43982422 -70.7109375 115.61328125 C-82.1462959 103.6031297 -86.66578606 85.58688881 -86.47070312 69.4519043 C-85.76473132 50.83565311 -79.35171422 35.46524014 -66 22.25 C-65.00419922 21.20392578 -65.00419922 21.20392578 -63.98828125 20.13671875 C-53.74570991 10.08924401 -39.81868842 5.0525854 -26 2.25 C-24.69772461 1.98509766 -24.69772461 1.98509766 -23.36914062 1.71484375 C-15.53990802 0.25172672 -7.951973 -0.05208716 0 0 Z " fill="#FDFCFD" transform="translate(824,1188.75)"/>
<path d="M0 0 C45.21 0 90.42 0 137 0 C137 14.19 137 28.38 137 43 C108.62 43 80.24 43 51 43 C51 59.83 51 76.66 51 94 C78.39 94 105.78 94 134 94 C134 108.19 134 122.38 134 137 C106.94 137 79.88 137 52 137 C52 167.36 52 197.72 52 229 C34.84 229 17.68 229 0 229 C0 153.43 0 77.86 0 0 Z " fill="#FDFCFD" transform="translate(1022,1196)"/>
<path d="M0 0 C16.83 0 33.66 0 51 0 C51 75.57 51 151.14 51 229 C34.17 229 17.34 229 0 229 C0 153.43 0 77.86 0 0 Z " fill="#FEFEFE" transform="translate(1199,1196)"/>
<path d="M0 0 C10.7971875 -0.12375 10.7971875 -0.12375 21.8125 -0.25 C24.06167236 -0.28641602 26.31084473 -0.32283203 28.62817383 -0.36035156 C41.81089904 -0.48595558 52.40455762 0.16045815 62.921875 8.9375 C71.5748496 17.52541464 73.23481709 24.86046487 73.3125 36.625 C73.30325678 49.24096499 71.49123716 57.51935952 62.5 66.8359375 C53.87621931 74.30089766 43.96967397 76.32208345 32.91015625 76.1953125 C32.07190308 76.19329834 31.2336499 76.19128418 30.36999512 76.18920898 C27.26744031 76.17882081 24.1649641 76.15089875 21.0625 76.125 C14.111875 76.08375 7.16125 76.0425 0 76 C0 50.92 0 25.84 0 0 Z " fill="#502D8B" transform="translate(576,1239)"/>
<path d="M0 0 C8.26573434 4.66482037 14.09494329 11.4541318 17.3671875 20.3359375 C20.00155686 30.63392683 19.02370709 41.65709142 13.92578125 50.96875 C10.01556025 57.04728381 5.73446298 60.95715559 -0.6328125 64.3359375 C-1.53580078 64.84447266 -1.53580078 64.84447266 -2.45703125 65.36328125 C-9.90221668 68.86784793 -19.34409956 68.55575202 -27.09375 66.3515625 C-37.35176863 62.24835505 -43.00355477 56.59445296 -47.90234375 46.796875 C-51.70475167 37.68721928 -52.0928836 28.03976394 -49.1953125 18.5859375 C-45.27059459 9.30062927 -38.22912272 2.45155206 -29.07421875 -1.6640625 C-19.65772261 -4.40029748 -9.02475692 -3.86775296 0 0 Z " fill="#F8F7FA" transform="translate(1256.6328125,1483.6640625)"/>
<path d="M0 0 C8.26573434 4.66482037 14.09494329 11.4541318 17.3671875 20.3359375 C19.87627821 30.14420117 18.4948375 39.87851964 15.3671875 49.3359375 C14.7071875 49.3359375 14.0471875 49.3359375 13.3671875 49.3359375 C13.1403125 50.0371875 12.9134375 50.7384375 12.6796875 51.4609375 C8.84194325 59.8674249 2.6452362 62.84025531 -5.6328125 66.3359375 C-15.80959191 69.59093824 -26.42308641 66.92714576 -35.6953125 62.30859375 C-42.67406549 57.93129556 -47.97110916 49.79562429 -50.1953125 41.94140625 C-52.07703678 30.73506609 -51.30306594 20.12903341 -44.78515625 10.6484375 C-33.48848598 -3.12898976 -16.37596407 -7.01827032 0 0 Z " fill="#F8F7FA" transform="translate(691.6328125,1483.6640625)"/>
<path d="M0 0 C5.94 0 11.88 0 18 0 C21.29959029 3.79504493 22.34837491 5.5472426 24 10 C24.98502128 11.83877186 25.9972549 13.66320615 27.03515625 15.47265625 C28.04645588 17.33475247 29.05556242 19.19804138 30.0625 21.0625 C31.07388072 22.92856866 32.08559578 24.79445616 33.09765625 26.66015625 C33.58484131 27.55871338 34.07202637 28.45727051 34.57397461 29.38305664 C36.3161125 32.58010783 38.08296341 35.76290827 39.85473633 38.94360352 C41.52049801 41.93458852 43.1723571 44.932358 44.8125 47.9375 C45.41707031 49.03964844 46.02164062 50.14179687 46.64453125 51.27734375 C48 54 48 54 48 56 C48.66 56 49.32 56 50 56 C50 37.52 50 19.04 50 0 C53.63 0 57.26 0 61 0 C61 21.78 61 43.56 61 66 C54.73 66 48.46 66 42 66 C41.05640625 64.23398438 40.1128125 62.46796875 39.140625 60.6484375 C32.8770745 48.9350081 26.60555437 37.22636397 20.25 25.5625 C19.76176758 24.66515137 19.27353516 23.76780273 18.77050781 22.84326172 C16.96043397 19.52863605 15.15069065 16.2450333 13.171875 13.02734375 C12 11 12 11 12 9 C11.34 9 10.68 9 10 9 C10 27.81 10 46.62 10 66 C6.7 66 3.4 66 0 66 C0 44.22 0 22.44 0 0 Z " fill="#F6F4F9" transform="translate(1345,1483)"/>
<path d="M0 0 C5.56055118 2.87570839 10.52371708 8.50118697 12.8828125 14.24609375 C14.94906227 22.10959404 14.68974079 30.25788401 10.90625 37.51953125 C7.32558381 43.08297676 1.97965232 47.29193881 -4.29296875 49.3828125 C-10.74508325 49.97874492 -16.56579696 49.58026939 -22.29296875 46.3828125 C-27.00949099 42.43409621 -31.33097898 37.26878181 -33.29296875 31.3828125 C-34.49893608 14.71673942 -34.49893608 14.71673942 -29.29296875 8.3828125 C-20.93853142 -0.21130131 -11.93562942 -3.21265664 0 0 Z " fill="#512E8C" transform="translate(1250.29296875,1491.6171875)"/>
<path d="M0 0 C5.56055118 2.87570839 10.52371708 8.50118697 12.8828125 14.24609375 C14.94906227 22.10959404 14.68974079 30.25788401 10.90625 37.51953125 C7.32558381 43.08297676 1.97965232 47.29193881 -4.29296875 49.3828125 C-10.74508325 49.97874492 -16.56579696 49.58026939 -22.29296875 46.3828125 C-27.00949099 42.43409621 -31.33097898 37.26878181 -33.29296875 31.3828125 C-34.49893608 14.71673942 -34.49893608 14.71673942 -29.29296875 8.3828125 C-20.93853142 -0.21130131 -11.93562942 -3.21265664 0 0 Z " fill="#512E8C" transform="translate(685.29296875,1491.6171875)"/>
<path d="M0 0 C4.16948528 3.39699157 7.53144775 7.3701844 9.64453125 12.33984375 C9.76953125 15.58984375 9.76953125 15.58984375 9.64453125 18.33984375 C6.01453125 18.33984375 2.38453125 18.33984375 -1.35546875 18.33984375 C-1.71354167 16.32161458 -2.07161458 14.30338542 -2.4296875 12.28515625 C-3.22194823 10.14042074 -3.22194823 10.14042074 -5.53125 9.109375 C-10.78002171 7.67921175 -15.97471711 7.68533491 -21.35546875 8.33984375 C-24.84289675 10.07427141 -24.84289675 10.07427141 -26.35546875 13.33984375 C-26.96725806 17.22206235 -26.60342151 20.59598548 -25.35546875 24.33984375 C-24.700625 24.44006836 -24.04578125 24.54029297 -23.37109375 24.64355469 C-20.3635585 25.1118891 -17.35968686 25.6007001 -14.35546875 26.08984375 C-12.81052734 26.32574219 -12.81052734 26.32574219 -11.234375 26.56640625 C-2.40277344 28.02896447 4.65170393 30.25741146 10.64453125 37.33984375 C12.60400071 43.21825214 12.43783502 49.91586001 10.51953125 55.77734375 C6.30156909 61.54189204 1.50570055 64.48518053 -5.35546875 66.33984375 C-13.6607414 67.46652484 -24.54247889 68.40519182 -31.85546875 63.77734375 C-33.7578125 62.109375 -33.7578125 62.109375 -35.35546875 60.33984375 C-35.89300781 59.78683594 -36.43054687 59.23382812 -36.984375 58.6640625 C-39.66601719 55.48554928 -40.63852202 53.0764173 -40.66796875 48.90234375 C-40.56484375 47.72671875 -40.46171875 46.55109375 -40.35546875 45.33984375 C-37.05546875 45.33984375 -33.75546875 45.33984375 -30.35546875 45.33984375 C-29.98421875 46.41234375 -29.61296875 47.48484375 -29.23046875 48.58984375 C-27.86437954 51.63727352 -26.46947746 53.94012327 -23.4921875 55.6875 C-16.55885535 57.80425771 -7.94913887 57.26382246 -1.35546875 54.33984375 C-1.02546875 53.34984375 -0.69546875 52.35984375 -0.35546875 51.33984375 C0.30453125 51.33984375 0.96453125 51.33984375 1.64453125 51.33984375 C1.63847456 49.92257741 1.58802914 48.50546679 1.51953125 47.08984375 C1.49632812 46.3009375 1.473125 45.51203125 1.44921875 44.69921875 C0.17631446 40.96701395 -1.89501462 40.1006943 -5.35546875 38.33984375 C-8.45445677 37.57621245 -11.56136073 37.19362782 -14.73046875 36.83984375 C-22.41686123 35.97359952 -29.15934471 34.62007631 -34.73046875 28.90234375 C-38.63703273 22.74199286 -39.02996354 17.89627085 -37.66796875 10.71484375 C-35.33180198 4.70755777 -30.77377158 1.56776884 -25.35546875 -1.66015625 C-17.92155138 -4.19406488 -6.78838447 -4.15585193 0 0 Z " fill="#F6F5F9" transform="translate(1516.35546875,1483.66015625)"/>
<path d="M0 0 C3.85605587 3.05438106 6.39362148 5.95262425 8.06640625 10.67578125 C8.25390625 14.05078125 8.25390625 14.05078125 8.06640625 16.67578125 C4.43640625 16.67578125 0.80640625 16.67578125 -2.93359375 16.67578125 C-3.16046875 15.39703125 -3.38734375 14.11828125 -3.62109375 12.80078125 C-4.10375921 10.60512338 -4.10375921 10.60512338 -4.93359375 8.67578125 C-7.33492149 7.13089808 -7.33492149 7.13089808 -9.93359375 6.67578125 C-10.59359375 6.34578125 -11.25359375 6.01578125 -11.93359375 5.67578125 C-16.7545904 5.08761966 -20.10124218 5.22987862 -24.43359375 7.55078125 C-27.80532134 10.4167497 -27.8738367 11.05829175 -28.30859375 15.55078125 C-28.56683516 17.62758701 -28.56683516 17.62758701 -27.93359375 19.67578125 C-24.20035703 23.61953884 -21.10989718 24.23308368 -15.80859375 24.67578125 C-5.79478981 25.74006211 2.54805314 27.61360766 9.06640625 35.67578125 C11.02587571 41.55418964 10.85971002 48.25179751 8.94140625 54.11328125 C4.72351213 59.87773655 -0.0713709 62.81678443 -6.93359375 64.67578125 C-10.13491426 65.07236023 -13.27377813 65.0970715 -16.49609375 65.05078125 C-17.30755859 65.06238281 -18.11902344 65.07398438 -18.95507812 65.0859375 C-26.56685733 65.04907658 -32.28896399 63.01529589 -37.93359375 57.67578125 C-42.02324031 52.81241778 -42.35424268 49.7751908 -41.93359375 43.67578125 C-38.63359375 43.67578125 -35.33359375 43.67578125 -31.93359375 43.67578125 C-31.56234375 44.74828125 -31.19109375 45.82078125 -30.80859375 46.92578125 C-29.44250454 49.97321102 -28.04760246 52.27606077 -25.0703125 54.0234375 C-18.13698035 56.14019521 -9.52726387 55.59975996 -2.93359375 52.67578125 C-2.60359375 51.68578125 -2.27359375 50.69578125 -1.93359375 49.67578125 C-1.27359375 49.67578125 -0.61359375 49.67578125 0.06640625 49.67578125 C0.06034956 48.25851491 0.00990414 46.84140429 -0.05859375 45.42578125 C-0.08179688 44.636875 -0.105 43.84796875 -0.12890625 43.03515625 C-1.40181054 39.30295145 -3.47313962 38.4366318 -6.93359375 36.67578125 C-10.03258177 35.91214995 -13.13948573 35.52956532 -16.30859375 35.17578125 C-23.99498623 34.30953702 -30.73746971 32.95601381 -36.30859375 27.23828125 C-40.21515773 21.07793036 -40.60808854 16.23220835 -39.24609375 9.05078125 C-36.90992698 3.04349527 -32.35189658 -0.09629366 -26.93359375 -3.32421875 C-18.13144167 -6.23909264 -7.63019167 -5.2255252 0 0 Z " fill="#F7F5F9" transform="translate(564.93359375,1485.32421875)"/>
<path d="M0 0 C3.63 0 7.26 0 11 0 C11.01458252 1.39758545 11.02916504 2.7951709 11.04418945 4.23510742 C11.10220831 9.42563322 11.17944163 14.61572685 11.26245117 19.8059082 C11.29568351 22.0512795 11.32372069 24.296734 11.34643555 26.54223633 C11.38001202 29.77200743 11.43233073 33.00101727 11.48828125 36.23046875 C11.49467117 37.23272995 11.5010611 38.23499115 11.50764465 39.2676239 C11.64027859 46.12633828 11.64027859 46.12633828 15 52 C19.73109663 56.25798697 23.35872127 57.35622178 29.58203125 57.28515625 C34.50373772 56.70472883 38.51255208 54.53543011 41.9375 51 C43.77438229 47.54233922 44.1290752 44.29274687 44.20532227 40.41503906 C44.22526749 39.51440735 44.24521271 38.61377563 44.26576233 37.68585205 C44.28247482 36.72217712 44.29918732 35.7585022 44.31640625 34.765625 C44.33718735 33.77246277 44.35796844 32.77930054 44.37937927 31.75604248 C44.44469749 28.58743118 44.50367739 25.41873789 44.5625 22.25 C44.60570207 20.10025198 44.64931691 17.95051222 44.69335938 15.80078125 C44.80036077 10.53393792 44.90167822 5.26701222 45 0 C48.63 0 52.26 0 56 0 C56.14946372 6.47369531 56.25774094 12.94636394 56.32958984 19.42138672 C56.35957261 21.61915608 56.40037359 23.81680773 56.45263672 26.01416016 C57.03325796 51.07195154 57.03325796 51.07195154 48.48974609 60.70239258 C42.42643045 66.23807456 36.5017083 67.48646285 28.625 67.375 C27.81289063 67.38660156 27.00078125 67.39820313 26.1640625 67.41015625 C19.6698303 67.37893398 14.07330263 66.29545789 8.79296875 62.3515625 C2.85219628 55.96270257 -0.13752597 51.02213593 -0.11352539 42.11791992 C-0.11344986 41.17732224 -0.11337433 40.23672455 -0.11329651 39.2676239 C-0.10813522 38.2653627 -0.10297394 37.2631015 -0.09765625 36.23046875 C-0.0962413 35.19432938 -0.09482635 34.15819 -0.09336853 33.09065247 C-0.08778242 29.78957196 -0.07523242 26.48855992 -0.0625 23.1875 C-0.05748321 20.94596452 -0.05292061 18.70442798 -0.04882812 16.46289062 C-0.03781753 10.97523414 -0.02056239 5.48762867 0 0 Z " fill="#F6F4F9" transform="translate(884,1483)"/>
<path d="M0 0 C16.17 0 32.34 0 49 0 C49 2.97 49 5.94 49 9 C42.73 9 36.46 9 30 9 C30 27.81 30 46.62 30 66 C26.37 66 22.74 66 19 66 C19 47.19 19 28.38 19 9 C12.73 9 6.46 9 0 9 C0 6.03 0 3.06 0 0 Z " fill="#F8F7FA" transform="translate(1007,1483)"/>
<path d="M0 0 C3.63 0 7.26 0 11 0 C11 18.81 11 37.62 11 57 C19.91 57 28.82 57 38 57 C38 59.97 38 62.94 38 66 C25.46 66 12.92 66 0 66 C0 44.22 0 22.44 0 0 Z " fill="#F8F6FA" transform="translate(781,1483)"/>
<path d="M0 0 C3.63 0 7.26 0 11 0 C11 21.78 11 43.56 11 66 C7.37 66 3.74 66 0 66 C0 44.22 0 22.44 0 0 Z " fill="#FAF9FB" transform="translate(1124,1483)"/>
<path d="M0 0 C0.66 0.33 1.32 0.66 2 1 C-4.27 7.27 -10.54 13.54 -17 20 C-17.66 19.67 -18.32 19.34 -19 19 C-13.0763504 12.14630879 -6.85369121 5.9236496 0 0 Z " fill="#A5B56B" transform="translate(807,851)"/>
<path d="M0 0 C-1.46966358 3.39859703 -3.38037514 5.64963709 -6 8.25 C-6.70125 8.95640625 -7.4025 9.6628125 -8.125 10.390625 C-10 12 -10 12 -12 12 C-10.53033642 8.60140297 -8.61962486 6.35036291 -6 3.75 C-5.29875 3.04359375 -4.5975 2.3371875 -3.875 1.609375 C-2 0 -2 0 0 0 Z " fill="#604986" transform="translate(902,513)"/>
<path d="M0 0 C-1.59092052 4.13639336 -4.60474918 7.23213248 -8 10 C-8.66 10 -9.32 10 -10 10 C-8.50006099 6.10015857 -4.53875449 0 0 0 Z " fill="#E2DDEC" transform="translate(1222,1486)"/>
<path d="M0 0 C-1.59092052 4.13639336 -4.60474918 7.23213248 -8 10 C-8.66 10 -9.32 10 -10 10 C-8.50006099 6.10015857 -4.53875449 0 0 0 Z " fill="#E2DDEC" transform="translate(657,1486)"/>
<path d="M0 0 C-1.5830577 4.2742558 -4.50568404 6.26531794 -8 9 C-8 6 -8 6 -6.7578125 4.39453125 C-5.94957031 3.61142578 -5.94957031 3.61142578 -5.125 2.8125 C-4.59132813 2.28269531 -4.05765625 1.75289062 -3.5078125 1.20703125 C-2 0 -2 0 0 0 Z " fill="#6D519F" transform="translate(1229,1494)"/>
<path d="M0 0 C-1.5830577 4.2742558 -4.50568404 6.26531794 -8 9 C-8 6 -8 6 -6.7578125 4.39453125 C-5.94957031 3.61142578 -5.94957031 3.61142578 -5.125 2.8125 C-4.59132813 2.28269531 -4.05765625 1.75289062 -3.5078125 1.20703125 C-2 0 -2 0 0 0 Z " fill="#6D519F" transform="translate(664,1494)"/>
<path d="M0 0 C0.66 0 1.32 0 2 0 C1.34 1.32 0.68 2.64 0 4 C-0.66 4 -1.32 4 -2 4 C-2.66 5.32 -3.32 6.64 -4 8 C-4 4.06830895 -2.60580385 2.83572772 0 0 Z " fill="#7B62A8" transform="translate(797,1240)"/>
</svg>
